<svg width="175" height="25" viewBox="0 0 175 25" fill="none" xmlns="http://www.w3.org/2000/svg">
<path d="M57.4412 22.6606C57.8636 22.6606 58.0765 22.8582 58.0765 23.2533C58.0765 23.6202 57.8636 23.8028 57.4412 23.8028H49.3835C48.2443 23.8028 47.1616 23.6119 46.1355 23.2317C45.1093 22.8515 44.2229 22.3369 43.4745 21.6877C42.7261 21.0402 42.1324 20.2716 41.6917 19.3834C41.2526 18.4952 41.0331 17.5588 41.0331 16.571V0.712806C41.0331 0.345903 41.2443 0.161621 41.6684 0.161621C42.1241 0.161621 42.3519 0.345903 42.3519 0.712806V16.571C42.3519 17.416 42.5382 18.2063 42.9124 18.9384C43.2866 19.6722 43.7922 20.3131 44.4258 20.8626C45.0611 21.4121 45.8012 21.8488 46.6477 22.1742C47.4942 22.4979 48.4056 22.6606 49.3835 22.6606H56.8059H57.4412Z" fill="#252324"/>
<path d="M78.0004 0.838687H78.0487C78.7322 1.26204 79.2527 1.8265 79.612 2.53043L89.5257 23.0836V23.253C89.5257 23.6199 89.3294 23.8025 88.9386 23.8025C88.6459 23.8025 88.4829 23.7046 88.4497 23.5053L85.4711 17.3311H65.4973L62.5187 23.5053C62.4205 23.7029 62.2409 23.8025 61.9815 23.8025C61.8185 23.8025 61.6805 23.7527 61.5657 23.6548C61.451 23.5568 61.3944 23.4373 61.3944 23.2962C61.3944 23.2115 61.411 23.1418 61.4443 23.0836L71.358 2.53043C71.7156 1.7684 72.2694 1.19065 73.0178 0.795523L73.1159 0.710853C73.831 0.34395 74.6127 0.159668 75.4609 0.159668C76.3723 0.159668 77.2021 0.372173 77.9505 0.793863L78.0004 0.838687ZM74.2402 1.30354L73.6531 1.64222C73.0677 2.00913 72.6602 2.43082 72.4324 2.91061L65.9862 16.3167H84.9838L78.4877 2.91061C78.2599 2.37603 77.8857 1.96596 77.3651 1.68373L77.3169 1.64222C76.7631 1.33177 76.1444 1.17737 75.4609 1.17737C75.0701 1.17737 74.6626 1.2471 74.2402 1.38821V1.30354Z" fill="#252324"/>
<path d="M112.332 1.55775C112.886 2.00932 113.301 2.52398 113.577 3.10173C113.853 3.67948 113.993 4.29209 113.993 4.94123C113.993 5.19524 113.952 5.49739 113.87 5.84935C113.789 6.20298 113.676 6.54663 113.529 6.88531C113.383 7.22399 113.195 7.53445 112.969 7.81668C112.739 8.09892 112.463 8.30976 112.139 8.45088L111.504 9.0004L112.285 9.33908C113.848 10.0148 115.069 10.9677 115.947 12.193C116.825 13.4198 117.264 14.7513 117.264 16.1891C117.264 17.2333 117.028 18.2128 116.558 19.1293C116.085 20.0457 115.45 20.8492 114.653 21.5399C113.855 22.2305 112.927 22.78 111.869 23.1884C110.812 23.5968 109.679 23.801 108.475 23.801H98.9039C97.4703 23.801 96.218 23.3777 95.1436 22.5327L94.9973 22.4048C93.9229 21.4751 93.3857 20.3478 93.3857 19.0213V4.93791C93.3857 3.61307 93.9229 2.4858 94.9973 1.55443L95.1436 1.42659C96.218 0.581553 97.472 0.158203 98.9039 0.158203H108.475C109.907 0.158203 111.161 0.581553 112.235 1.42659L112.332 1.55775ZM96.3627 1.9811L95.9236 2.36294C95.1087 3.06687 94.7029 3.92685 94.7029 4.94289V8.58037H108.523C109.077 8.58037 109.606 8.48906 110.112 8.30478C110.615 8.12216 111.054 7.86151 111.43 7.52283C111.805 7.18415 112.106 6.79733 112.333 6.36069C112.561 5.92406 112.676 5.45257 112.676 4.94455C112.676 3.92851 112.269 3.07019 111.455 2.3646L111.016 1.98276L110.966 2.02426C110.218 1.54613 109.386 1.3054 108.477 1.3054H98.9056C97.9609 1.3054 97.1144 1.54447 96.366 2.02426V1.9811H96.3627ZM96.3627 21.9416C97.1111 22.4214 97.9576 22.6605 98.9022 22.6605H108.473C109.45 22.6605 110.394 22.4912 111.306 22.1525C112.217 21.8138 113.015 21.3556 113.699 20.7778C114.382 20.2001 114.928 19.5161 115.335 18.7258C115.743 17.9372 115.946 17.0905 115.946 16.1891C115.946 15.3158 115.751 14.484 115.359 13.6938C114.968 12.9052 114.431 12.2145 113.747 11.6219C113.064 11.0292 112.274 10.5643 111.379 10.2256C110.482 9.88695 109.531 9.71761 108.522 9.71761H94.7012V19.0213C94.7012 20.0357 95.1087 20.8957 95.922 21.6013L96.361 21.9815V21.9416H96.3627Z" fill="#252324"/>
<path d="M0.872559 0.0634766H19.3995C20.6451 0.0634766 21.7078 0.158108 22.5893 0.34737C23.4691 0.536632 24.1842 0.85041 24.7313 1.2887C25.2785 1.72699 25.681 2.29644 25.9388 2.99372C26.1965 3.69266 26.3246 4.55264 26.3246 5.57034V7.55926C26.3246 8.98038 26.0984 9.99975 25.6477 10.6157C25.197 11.2316 24.6282 11.6467 23.9397 11.8592C24.3256 11.9538 24.6864 12.1032 25.0191 12.3041C25.3517 12.505 25.6361 12.7955 25.8739 13.174C26.1101 13.5542 26.293 14.044 26.4211 14.6483C26.5491 15.2526 26.614 16.0047 26.614 16.9045V19.0362C26.614 20.0091 26.4909 20.8259 26.2431 21.4883C25.997 22.1524 25.5995 22.6919 25.0507 23.1053C24.5035 23.5204 23.7884 23.8225 22.9086 24.0118C22.0272 24.2011 20.9644 24.2957 19.7188 24.2957H0.872559V0.0634766ZM5.77038 4.46964V10.0479H19.4959C20.3541 10.0479 20.9461 9.89515 21.2671 9.58636C21.5898 9.27922 21.7511 8.7214 21.7511 7.9162V6.38882C21.7511 5.65502 21.5515 5.15031 21.1557 4.87804C20.7582 4.60577 20.0447 4.46964 19.0136 4.46964H5.77038ZM5.77038 13.9577V19.8912H19.4643C20.3873 19.8912 21.0476 19.7551 21.4451 19.4828C21.8425 19.2105 22.0405 18.6958 22.0405 17.9371V16.4446C22.0405 15.4502 21.8625 14.7861 21.5083 14.4541C21.154 14.122 20.5254 13.956 19.624 13.956H5.77038V13.9577Z" fill="#252324"/>
<path d="M29.8387 24.2973V0.0634766H34.7366V24.299H29.8387V24.2973Z" fill="#252324"/>
<path d="M174.112 12.6312C174.107 15.0152 172.102 16.946 169.629 16.946H134.444C131.712 16.946 129.467 14.7546 129.63 12.1248C129.631 12.1066 129.631 12.0866 129.633 12.0684C129.857 8.89407 132.483 6.30749 135.768 6.02692C143.656 6.02692 140.752 15.6477 147.786 15.6477C154.623 15.2709 150.167 1.53941 163.118 1.70709C169.251 1.78678 174.126 6.71756 174.112 12.6312Z" fill="#F3D033"/>
<path d="M146.936 11.9023C148.412 11.9023 149.608 10.7487 149.608 9.32565C149.608 7.90262 148.412 6.74902 146.936 6.74902C145.46 6.74902 144.263 7.90262 144.263 9.32565C144.263 10.7487 145.46 11.9023 146.936 11.9023Z" fill="#BB242A"/>
</svg>
