<svg width="42" height="42" viewBox="0 0 42 42" fill="none" xmlns="http://www.w3.org/2000/svg">
<path d="M25.625 10.1251C25.2433 10.5145 25.0295 11.0381 25.0295 11.5834C25.0295 12.1288 25.2433 12.6523 25.625 13.0418L28.9583 16.3751C29.3478 16.7568 29.8713 16.9706 30.4167 16.9706C30.962 16.9706 31.4856 16.7568 31.875 16.3751L39.7292 8.52093C40.7767 10.8359 41.0939 13.4152 40.6385 15.915C40.183 18.4148 38.9765 20.7164 37.1797 22.5132C35.383 24.3099 33.0814 25.5164 30.5816 25.9719C28.0817 26.4274 25.5025 26.1102 23.1875 25.0626L8.79167 39.4584C7.96287 40.2872 6.83877 40.7529 5.66667 40.7529C4.49456 40.7529 3.37047 40.2872 2.54167 39.4584C1.71287 38.6296 1.24725 37.5055 1.24725 36.3334C1.24725 35.1613 1.71287 34.0372 2.54167 33.2084L16.9375 18.8126C15.8899 16.4976 15.5727 13.9184 16.0282 11.4185C16.4837 8.91873 17.6902 6.61709 19.4869 4.82035C21.2837 3.02362 23.5853 1.81712 26.0851 1.36165C28.5849 0.906175 31.1642 1.22336 33.4792 2.27093L25.6458 10.1043L25.625 10.1251Z" stroke="white" stroke-width="2" stroke-linecap="round" stroke-linejoin="round"/>
</svg>
