<svg width="50" height="50" viewBox="0 0 50 50" fill="none" xmlns="http://www.w3.org/2000/svg">
<path d="M2.08322 8.33337V20.8334H14.5832" stroke="white" stroke-width="2" stroke-linecap="round" stroke-linejoin="round"/>
<path d="M47.9165 41.6666V29.1666H35.4165" stroke="white" stroke-width="2" stroke-linecap="round" stroke-linejoin="round"/>
<path d="M42.6874 18.75C41.6308 15.7641 39.835 13.0945 37.4677 10.9904C35.1003 8.88627 32.2385 7.41613 29.1493 6.71716C26.0601 6.01819 22.8441 6.11316 19.8016 6.99323C16.759 7.8733 13.9889 9.50977 11.7499 11.75L2.08322 20.8333M47.9166 29.1666L38.2499 38.25C36.0108 40.4901 33.2408 42.1266 30.1982 43.0067C27.1556 43.8867 23.9397 43.9817 20.8505 43.2828C17.7613 42.5838 14.8995 41.1136 12.5321 39.0095C10.1647 36.9054 8.36899 34.2358 7.31239 31.25" stroke="white" stroke-width="2" stroke-linecap="round" stroke-linejoin="round"/>
</svg>
