<svg width="40" height="42" viewBox="0 0 40 42" fill="none" xmlns="http://www.w3.org/2000/svg">
<path d="M39.5 21.002C39.5 31.7739 30.7695 40.506 20 40.506C9.23054 40.506 0.5 31.7739 0.5 21.002C0.5 10.2302 9.23054 1.49805 20 1.49805C30.7695 1.49805 39.5 10.2302 39.5 21.002Z" fill="white" stroke="#F3D033"/>
<path d="M25 10.0234H15C12.2386 10.0234 10 12.262 10 15.0234V25.0234C10 27.7848 12.2386 30.0234 15 30.0234H25C27.7614 30.0234 30 27.7848 30 25.0234V15.0234C30 12.262 27.7614 10.0234 25 10.0234Z" stroke="#F3D033" stroke-width="2" stroke-linecap="round" stroke-linejoin="round"/>
<path d="M24 19.3934C24.1234 20.2256 23.9813 21.0756 23.5938 21.8224C23.2063 22.5692 22.5931 23.1748 21.8416 23.553C21.0901 23.9313 20.2384 24.063 19.4078 23.9293C18.5771 23.7956 17.8098 23.4035 17.2148 22.8085C16.6199 22.2136 16.2277 21.4462 16.0941 20.6156C15.9604 19.7849 16.0921 18.9333 16.4703 18.1817C16.8486 17.4302 17.4542 16.8171 18.201 16.4296C18.9478 16.0421 19.7978 15.9 20.63 16.0234C21.4789 16.1493 22.2649 16.5448 22.8717 17.1517C23.4785 17.7585 23.8741 18.5444 24 19.3934Z" stroke="#F3D033" stroke-width="2" stroke-linecap="round" stroke-linejoin="round"/>
<path d="M25.5 14.5234H25.51" stroke="#F3D033" stroke-width="2" stroke-linecap="round" stroke-linejoin="round"/>
</svg>
